<?xml version="1.0" encoding="utf-8"?>
<!-- Generator: Adobe Illustrator 19.1.0, SVG Export Plug-In . SVG Version: 6.00 Build 0)  -->
<svg version="1.1" id="Layer_1" xmlns="http://www.w3.org/2000/svg" xmlns:xlink="http://www.w3.org/1999/xlink" x="0px" y="0px"
	 viewBox="0 0 1086.7 207.4" style="enable-background:new 0 0 1086.7 207.4;" xml:space="preserve">
<style type="text/css">
	.st0{fill:#FFFFFF;}
	.st1{fill:#78B1BB;}
</style>
<g>
	<g>
		<g>
			<path class="st0" d="M0,15.1h30.3v121H0V15.1z"/>
			<path class="st0" d="M101.2,74.6v61.6H70.9V31l-8.4-13.9v-2h35.6L143,83.5V15.1h30.3v121H143L101.2,74.6z"/>
			<path class="st0" d="M278.3,49.7c-6.1-3.9-17.3-8.2-26-8.2s-11.7,3.6-11.7,7.7c0,2.8,2.8,5.9,7.8,8.7l13.7,7.8
				c16,9.3,22.6,20.5,22.6,34.5c0,19.9-12.8,37.9-42.2,37.9c-11.6,0-23-2.5-31-5.7V99.5c6.6,5.2,19,10.3,29.7,10.3
				c7.1,0,11.2-2.7,11.2-7.8c0-2.8-2.3-5.5-8-8.7l-14.4-8.2c-16.9-9.6-21.9-20.5-21.9-34.9c0-17.6,10.9-37,44.3-37
				c8.4,0,18,1.8,25.8,5V49.7z"/>
			<path class="st0" d="M544.3,136.2l-22.8-67.1v67.1h-30.3v-121h37.4l28.8,82.4l28.8-82.4h37.2v121h-30.3V68.9l-22.8,67.3H544.3z"
				/>
			<path class="st0" d="M693.5,74.6v61.6h-30.3V31l-8.4-13.9v-2h35.6l44.9,68.3V15.1h30.3v121h-30.3L693.5,74.6z"/>
			<path class="st0" d="M805.2,15.1h30.3v121h-30.3V15.1z"/>
			<path class="st0" d="M941.9,114.3h-40.4l-7.3,21.9h-33.8l44.5-121h33.8l44.5,121h-33.8L941.9,114.3z M911.5,85.1h20.6l-10.3-30.4
				L911.5,85.1z"/>
			<path class="st0" d="M1084.6,133.1c-7.7,3.2-16.4,5-25.5,5c-35.4,0-62.3-27.1-62.3-62.5s26.9-62.5,62.3-62.5
				c9.1,0,17.8,1.8,25.5,5v34.7c-5.9-5.5-14.8-9.4-25.5-9.4c-17.8,0-31.1,14.6-31.1,32.2c0,17.8,13.3,32.2,31.1,32.2
				c10.7,0,19.9-3.9,25.5-9.1V133.1z"/>
		</g>
	</g>
	<g>
		<path class="st0" d="M907.8,178.3c-2.7-1.4-6.6-2.4-10.9-2.4c-5.9,0-10.4,4.4-10.4,10.7c0,5.9,4.2,10.7,10,10.7
			c5.4,0,8.4-3.6,8.4-6.6v-0.4h-8.5v-9.1h18.9c0.4,1.6,0.6,4,0.6,6.2c0,10.5-6.5,20-19.7,20c-11.7,0-20.1-9-20.1-20.8
			c0-11.8,8.7-20.8,20.8-20.8c4,0,8.2,0.6,10.9,1.6V178.3z"/>
		<path class="st0" d="M947.4,199.5h-13.5l-2.4,7.3h-11.3l14.8-40.3h11.3l14.8,40.3h-11.3L947.4,199.5z M937.2,189.7h6.9l-3.4-10.1
			L937.2,189.7z"/>
		<path class="st0" d="M987.2,206.8l-7.6-22.4v22.4h-10.1v-40.3H982l9.6,27.5l9.6-27.5h12.4v40.3h-10.1v-22.4l-7.6,22.4H987.2z"/>
		<path class="st0" d="M1026.8,206.8v-40.3h23.6v9.7h-13.5v5.4h12.3v9.7h-12.3v5.8h13.5v9.7H1026.8z"/>
		<path class="st0" d="M1084.6,177.9c-2-1.3-5.8-2.7-8.7-2.7c-2.9,0-3.9,1.2-3.9,2.6c0,0.9,0.9,2,2.6,2.9l4.6,2.6
			c5.3,3.1,7.5,6.8,7.5,11.5c0,6.6-4.3,12.6-14.1,12.6c-3.9,0-7.7-0.8-10.3-1.9v-11c2.2,1.7,6.3,3.4,9.9,3.4c2.4,0,3.7-0.9,3.7-2.6
			c0-0.9-0.8-1.8-2.7-2.9l-4.8-2.7c-5.6-3.2-7.3-6.8-7.3-11.6c0-5.9,3.6-12.3,14.8-12.3c2.8,0,6,0.6,8.6,1.7V177.9z"/>
	</g>
	<g>
		<path class="st1" d="M370.2,32c-5.4-1.5-11.1-2.1-17.1-1.5c-21.8,2.2-39.1,20.1-40.6,41.9c-1.8,26.5,19.1,48.6,45.3,48.6
			c4.3,0,8.5-0.6,12.4-1.7c0.9-0.3,1-1.5,0.1-1.9c-16.2-6.9-27.6-23-27.6-41.8c0-18.8,11.4-34.9,27.6-41.8
			C371.2,33.5,371.1,32.2,370.2,32z"/>
		<path class="st1" d="M433.4,75.6c0,34.9-23.6,64.3-55.8,73c-1,0.3-0.9,1.8,0.1,2c4.6,0.6,9.3,0.8,14.1,0.6
			c38.6-1.9,69.8-33.2,71.7-71.8C465.7,35.9,431.1,0,388,0c-3.5,0-6.9,0.2-10.2,0.7c-1.1,0.1-1.2,1.7-0.1,2
			C409.8,11.4,433.4,40.7,433.4,75.6z"/>
	</g>
</g>
</svg>
