<?xml version="1.0" encoding="UTF-8"?> <!-- Generator: Adobe Illustrator 25.2.3, SVG Export Plug-In . SVG Version: 6.00 Build 0) --> <svg xmlns="http://www.w3.org/2000/svg" xmlns:xlink="http://www.w3.org/1999/xlink" version="1.1" id="LOGO" x="0px" y="0px" viewBox="0 0 463.57 531.96" style="enable-background:new 0 0 463.57 531.96;" xml:space="preserve"> <style type="text/css"> .st0{fill:#FFFFFF;} .st1{stroke:#000000;stroke-miterlimit:10;} .st2{fill:none;} </style> <g> <g> <path class="st0" d="M51.41,51.82v350h360.61l0-350H51.41z"></path> </g> <path class="st0" d="M80.05,440.12c-3.45-1.24-7.18-1.79-10.56-1.79c-4,0-7.87,1.17-7.87,5.24c0,3.45,2.83,5.18,9.32,7.8 c8.14,3.38,13.66,6.69,13.66,15.32c0,9.87-8.56,14.49-18.22,14.49c-4.49,0-10.14-0.76-14.97-2.48l1.79-8.21 c4.42,1.79,9.25,2.62,12.83,2.62c5.45,0,8.49-1.93,8.49-5.73c0-3.66-2.97-5.52-9.66-8.14c-7.87-3.17-13.32-7.11-13.32-14.7 c0-10.21,8.97-14.28,17.32-14.28c4.76,0,9.32,0.62,12.9,1.79L80.05,440.12z"></path> <path class="st0" d="M114.24,438.6h-13.55v-8.34h37.23v8.34h-13.27v42.58h-10.41V438.6z"></path> <path class="st0" d="M195.9,465.54c0,10.17-8.56,15.64-20.06,15.64c-11.36,0-19.92-5.47-19.92-15.64v-35.28h10.24v34.02 c0,6.17,4,8.7,9.61,8.7c5.54,0,9.89-2.67,9.89-8.7v-34.02h10.24V465.54z"></path> <path class="st0" d="M218.77,430.26h17.33c16.76,0,25.68,9.56,25.68,25.25c0,15.76-8.99,25.68-25.68,25.68h-17.33V430.26z M229.19,472.84h5.42c11.63,0,16.76-6.85,16.76-17.19c0-10.2-5.14-17.05-16.76-17.05h-5.42V472.84z"></path> <path class="st0" d="M281.83,430.26h10.41v50.92h-10.41V430.26z"></path> <path class="st0" d="M336.28,481.18c-14.84,0-23.12-10.63-23.12-25.39c0-14.84,8.14-25.53,23.12-25.53 c15.04,0,23.12,10.7,23.12,25.53C359.4,470.55,351.19,481.18,336.28,481.18z M336.28,438.33c-8.97,0-13.04,7.8-13.04,17.46 c0,9.59,4.14,17.32,13.11,17.32c9.04,0,12.97-7.73,12.97-17.32C349.33,446.13,345.25,438.33,336.28,438.33z"></path> <path class="st0" d="M407.83,440.12c-3.45-1.24-7.18-1.79-10.56-1.79c-4,0-7.87,1.17-7.87,5.24c0,3.45,2.83,5.18,9.32,7.8 c8.14,3.38,13.66,6.69,13.66,15.32c0,9.87-8.56,14.49-18.22,14.49c-4.49,0-10.14-0.76-14.97-2.48l1.79-8.21 c4.42,1.79,9.25,2.62,12.83,2.62c5.45,0,8.49-1.93,8.49-5.73c0-3.66-2.97-5.52-9.66-8.14c-7.87-3.17-13.32-7.11-13.32-14.7 c0-10.21,8.97-14.28,17.32-14.28c4.76,0,9.32,0.62,12.9,1.79L407.83,440.12z"></path> <path class="st1" d="M259.54,173.23v65.63c27.64,13.33,49.38-0.02,49.38-35.24c0-36.13-12.73-52.17-50.26-65.06 c-14.77-4.98-42.22-13.24-61.07-16.74v195.93l44.32,14.07V167.49c0-7.7,3.44-12.85,8.98-11.07 C258.13,158.44,259.54,165.52,259.54,173.23z"></path> <path class="st1" d="M100.99,274.6c-9.78,7.26-6.2,19.84,15.26,25.9c23.03,7.58,46.4,9.08,68.35,5.49 c1.43-0.24,2.98-0.48,4.37-0.73v-23.04l-21.93,7.96c-8.1,2.91-19.98,3.52-26.56,1.37c-6.57-2.16-5.33-6.25,2.76-9.15l45.73-16.37 v-25.75l-63.55,22.59C125.42,262.85,110.04,267.88,100.99,274.6z"></path> <path class="st1" d="M347.59,259.49c-18.56-7.04-42.19-9.44-61.5-7.32c-19.31,2.14-33.03,6.99-33.03,6.99l-2.74,0.93v26.63 l47.51-16.73c8.09-2.91,19.98-3.53,26.55-1.37c6.57,2.15,5.34,6.25-2.76,9.15l-71.3,25.4v25.66l96.89-34.8 c0,0,13.03-4.78,18.34-11.49C370.86,275.84,368.51,266.1,347.59,259.49z"></path> <g> <g> <path class="st0" d="M422.75,473.22h-2.96v-1.02h7.06v1.02h-2.93v7.96h-1.17V473.22z"></path> <path class="st0" d="M431.63,481.18l-2.46-7.29v7.29h-1.18v-8.98h1.63l2.59,7.64l2.6-7.64h1.62v8.98h-1.17v-7.29l-2.46,7.29 H431.63z"></path> </g> </g> </g> <rect x="0" y="0" class="st2" width="463.57" height="531.96"></rect> </svg> 